<svg width="155" height="41" viewBox="0 0 155 41" fill="none" xmlns="http://www.w3.org/2000/svg">
 
  
  <!-- Letter G with rounded corners and structure -->
  <path d="M62.5 20.328C62.5 9.016 53.428 0 42.004 0C30.58 0 21.508 9.016 21.508 20.328C21.508 31.64 30.58 40.656 42.004 40.656C53.428 40.656 62.5 31.64 62.5 20.328ZM53.876 20.328C53.876 27.104 48.668 32.48 42.004 32.48C35.34 32.48 30.132 27.104 30.132 20.328C30.132 13.552 35.34 8.176 42.004 8.176C48.668 8.176 53.876 13.552 53.876 20.328Z" fill="white"/>
  
  <!-- Circular part of the G -->
  <path d="M93.036 10.136C89.844 3.808 83.236 0 75.34 0C64.084 0 54.844 9.128 54.844 20.328C54.844 31.528 63.86 40.656 75.284 40.656C86.485 40.656 94.661 32.256 94.661 21.28V18.144H74.276V25.2H85.644C84.58 29.68 80.548 32.76 75.34 32.76C68.62 32.76 63.356 27.216 63.356 20.328C63.356 13.384 68.62 7.952 75.284 7.952C79.82 7.952 83.46 10.024 85.42 13.832L93.036 10.136Z" fill="white"/>
  

</svg>
