<svg xmlns="http://www.w3.org/2000/svg" viewBox="0 0 800 600">
    <!-- Background -->
    <rect width="800" height="600" fill="#f9f9f9"/>
    
    <!-- Header -->
    <rect x="0" y="0" width="800" height="60" fill="#ffffff" stroke="#e5e5e5" stroke-width="1"/>
    <circle cx="40" cy="30" r="20" fill="#ff0000"/> <!-- YouTube logo -->
    <rect x="650" y="15" width="100" height="30" rx="15" fill="#1a73e8"/> <!-- Sign in button -->
    <text x="680" y="35" fill="white" font-family="Arial" font-size="14">Sign In</text>
    
    <!-- Large Title Banner -->
    <rect x="0" y="60" width="800" height="80" fill="#fff" stroke="#e5e5e5" stroke-width="1"/>
    <!-- Main Title -->
    <text x="400" y="105" text-anchor="middle" fill="#ff0000" font-family="Arial" font-size="28" font-weight="bold">
        YouTube Video Recommendation System
    </text>
    <!-- Subtitle -->
    <text x="400" y="130" text-anchor="middle" fill="#666" font-family="Arial" font-size="14">
        Personalized content based on your interests
    </text>
    
    <!-- Left Sidebar Navigation -->
    <rect x="0" y="140" width="150" height="460" fill="#fff" stroke="#e5e5e5" stroke-width="1"/>
    
    <!-- Vertical Navigation Items -->
    <g transform="translate(20,180)">
        <rect width="110" height="40" rx="8" fill="#f1f1f1"/>
        <text x="20" y="25" fill="#666" font-family="Arial" font-size="14">Popular</text>
    </g>
    
    <g transform="translate(20,240)">
        <rect width="110" height="40" rx="8" fill="#f1f1f1"/>
        <text x="20" y="25" fill="#666" font-family="Arial" font-size="14">For You</text>
    </g>
    
    <g transform="translate(20,300)">
        <rect width="110" height="40" rx="8" fill="#f1f1f1"/>
        <text x="20" y="25" fill="#666" font-family="Arial" font-size="14">Trending</text>
    </g>
    
    <!-- Search Bar -->
    <rect x="200" y="15" width="400" height="30" rx="15" fill="white" stroke="#e5e5e5" stroke-width="1"/>
    <text x="220" y="35" fill="#666" font-family="Arial" font-size="14">Search videos...</text>
    
    <!-- Video Grid - Adjusted for sidebar -->
    <!-- Row 1 -->
    <g transform="translate(170,160)">
        <!-- Video 1 -->
        <rect width="200" height="130" fill="#e5e5e5" rx="5"/>
        <rect x="10" y="10" width="180" height="90" fill="#ff8a8a"/>
        <circle cx="100" cy="55" r="25" fill="#fff"/>
        <polygon points="90,45 90,65 115,55" fill="#666"/>
        <rect y="140" width="200" height="60" fill="white"/>
        <circle cx="20" cy="165" r="15" fill="#ddd"/>
        <text x="45" y="160" font-family="Arial" font-size="12" fill="#333">Machine Learning</text>
        <text x="45" y="180" font-family="Arial" font-size="11" fill="#666">TechEdu • 125K</text>
    </g>
    
    <g transform="translate(390,160)">
        <!-- Video 2 -->
        <rect width="200" height="130" fill="#e5e5e5" rx="5"/>
        <rect x="10" y="10" width="180" height="90" fill="#8ac4ff"/>
        <rect x="50" y="30" width="100" height="50" fill="#fff"/>
        <line x1="50" y1="40" x2="150" y2="40" stroke="#666" stroke-width="2"/>
        <rect y="140" width="200" height="60" fill="white"/>
        <circle cx="20" cy="165" r="15" fill="#ddd"/>
        <text x="45" y="160" font-family="Arial" font-size="12" fill="#333">Data Science</text>
        <text x="45" y="180" font-family="Arial" font-size="11" fill="#666">CodePro • 89K</text>
    </g>
    
    <g transform="translate(610,160)">
        <!-- Video 3 -->
        <rect width="200" height="130" fill="#e5e5e5" rx="5"/>
        <rect x="10" y="10" width="180" height="90" fill="#95ff9e"/>
        <circle cx="100" cy="55" r="35" fill="#fff"/>
        <rect y="140" width="200" height="60" fill="white"/>
        <circle cx="20" cy="165" r="15" fill="#ddd"/>
        <text x="45" y="160" font-family="Arial" font-size="12" fill="#333">AI Applications</text>
        <text x="45" y="180" font-family="Arial" font-size="11" fill="#666">FutureTech</text>
    </g>
    
    <!-- Row 2 -->
    <g transform="translate(170,380)">
        <!-- Video 4 -->
        <rect width="200" height="130" fill="#e5e5e5" rx="5"/>
        <rect x="10" y="10" width="180" height="90" fill="#ffd68a"/>
        <rect x="60" y="25" width="80" height="60" fill="#fff"/>
        <rect y="140" width="200" height="60" fill="white"/>
        <circle cx="20" cy="165" r="15" fill="#ddd"/>
        <text x="45" y="160" font-family="Arial" font-size="12" fill="#333">Neural Networks</text>
        <text x="45" y="180" font-family="Arial" font-size="11" fill="#666">AIExplained</text>
    </g>
    
    <g transform="translate(390,380)">
        <!-- Video 5 -->
        <rect width="200" height="130" fill="#e5e5e5" rx="5"/>
        <rect x="10" y="10" width="180" height="90" fill="#d9a6ff"/>
        <path d="M70,35 L140,55 L70,75 Z" fill="#fff"/>
        <rect y="140" width="200" height="60" fill="white"/>
        <circle cx="20" cy="165" r="15" fill="#ddd"/>
        <text x="45" y="160" font-family="Arial" font-size="12" fill="#333">Deep Learning</text>
        <text x="45" y="180" font-family="Arial" font-size="11" fill="#666">TechMaster</text>
    </g>
    
    <g transform="translate(610,380)">
        <!-- Video 6 -->
        <rect width="200" height="130" fill="#e5e5e5" rx="5"/>
        <rect x="10" y="10" width="180" height="90" fill="#ff9ecd"/>
        <rect x="55" y="30" width="90" height="40" fill="#fff"/>
        <rect y="140" width="200" height="60" fill="white"/>
        <circle cx="20" cy="165" r="15" fill="#ddd"/>
        <text x="45" y="160" font-family="Arial" font-size="12" fill="#333">ML Systems</text>
        <text x="45" y="180" font-family="Arial" font-size="11" fill="#666">AIHub</text>
    </g>
</svg>
